<mxfile host="app.diagrams.net" modified="2024-06-29T16:43:28.127Z" agent="Mozilla/5.0 (Windows NT 10.0; Win64; x64) AppleWebKit/537.36 (KHTML, like Gecko) Chrome/126.0.0.0 Safari/537.36 Edg/126.0.0.0" etag="wtDievSG7Gjf-GWZRyrW" version="24.6.4" type="github" pages="2">
  <diagram name="Page-1" id="BciG3KTOEUtgmnjMZz7W">
    <mxGraphModel dx="1836" dy="459" grid="1" gridSize="10" guides="1" tooltips="1" connect="1" arrows="1" fold="1" page="1" pageScale="1" pageWidth="850" pageHeight="1100" math="0" shadow="0">
      <root>
        <mxCell id="0" />
        <mxCell id="1" parent="0" />
        <mxCell id="bziECuRTAR9rfFPs8nf1-1" value="Instructor_table" style="whiteSpace=wrap;html=1;align=center;" parent="1" vertex="1">
          <mxGeometry x="-400" y="115" width="100" height="40" as="geometry" />
        </mxCell>
        <mxCell id="bziECuRTAR9rfFPs8nf1-2" value="" style="endArrow=none;html=1;rounded=0;exitX=0.5;exitY=0;exitDx=0;exitDy=0;entryX=0.5;entryY=1;entryDx=0;entryDy=0;" parent="1" source="bziECuRTAR9rfFPs8nf1-1" target="bziECuRTAR9rfFPs8nf1-3" edge="1">
          <mxGeometry relative="1" as="geometry">
            <mxPoint x="-160" y="195" as="sourcePoint" />
            <mxPoint x="-350" y="75" as="targetPoint" />
          </mxGeometry>
        </mxCell>
        <mxCell id="bziECuRTAR9rfFPs8nf1-3" value="Instructor_ID" style="ellipse;whiteSpace=wrap;html=1;align=center;fontStyle=4;" parent="1" vertex="1">
          <mxGeometry x="-460" y="35" width="100" height="40" as="geometry" />
        </mxCell>
        <mxCell id="bziECuRTAR9rfFPs8nf1-4" value="Instructor&lt;div&gt;number&lt;/div&gt;" style="ellipse;whiteSpace=wrap;html=1;align=center;" parent="1" vertex="1">
          <mxGeometry x="-450" y="205" width="100" height="40" as="geometry" />
        </mxCell>
        <mxCell id="bziECuRTAR9rfFPs8nf1-6" value="" style="endArrow=none;html=1;rounded=0;exitX=0.5;exitY=0;exitDx=0;exitDy=0;entryX=0.5;entryY=1;entryDx=0;entryDy=0;" parent="1" source="bziECuRTAR9rfFPs8nf1-4" target="bziECuRTAR9rfFPs8nf1-1" edge="1">
          <mxGeometry relative="1" as="geometry">
            <mxPoint x="-330" y="135" as="sourcePoint" />
            <mxPoint x="-330" y="95" as="targetPoint" />
          </mxGeometry>
        </mxCell>
        <mxCell id="bziECuRTAR9rfFPs8nf1-8" value="Instructor_Name" style="ellipse;whiteSpace=wrap;html=1;align=center;" parent="1" vertex="1">
          <mxGeometry x="-300" y="35" width="100" height="40" as="geometry" />
        </mxCell>
        <mxCell id="bziECuRTAR9rfFPs8nf1-9" value="" style="endArrow=none;html=1;rounded=0;exitX=0.5;exitY=0;exitDx=0;exitDy=0;entryX=0.5;entryY=1;entryDx=0;entryDy=0;" parent="1" source="bziECuRTAR9rfFPs8nf1-1" target="bziECuRTAR9rfFPs8nf1-8" edge="1">
          <mxGeometry relative="1" as="geometry">
            <mxPoint x="-340" y="125" as="sourcePoint" />
            <mxPoint x="-400" y="85" as="targetPoint" />
          </mxGeometry>
        </mxCell>
        <mxCell id="bziECuRTAR9rfFPs8nf1-10" value="Instructor&lt;br&gt;email" style="ellipse;whiteSpace=wrap;html=1;align=center;" parent="1" vertex="1">
          <mxGeometry x="-300" y="205" width="100" height="40" as="geometry" />
        </mxCell>
        <mxCell id="bziECuRTAR9rfFPs8nf1-11" value="" style="endArrow=none;html=1;rounded=0;exitX=0.5;exitY=0;exitDx=0;exitDy=0;entryX=0.5;entryY=1;entryDx=0;entryDy=0;" parent="1" source="bziECuRTAR9rfFPs8nf1-10" target="bziECuRTAR9rfFPs8nf1-1" edge="1">
          <mxGeometry relative="1" as="geometry">
            <mxPoint x="-390" y="215" as="sourcePoint" />
            <mxPoint x="-340" y="165" as="targetPoint" />
          </mxGeometry>
        </mxCell>
        <mxCell id="bziECuRTAR9rfFPs8nf1-12" value="Users_table" style="whiteSpace=wrap;html=1;align=center;" parent="1" vertex="1">
          <mxGeometry x="520" y="140" width="100" height="40" as="geometry" />
        </mxCell>
        <mxCell id="bziECuRTAR9rfFPs8nf1-13" value="User_ID" style="ellipse;whiteSpace=wrap;html=1;align=center;fontStyle=4;" parent="1" vertex="1">
          <mxGeometry x="390" y="50" width="100" height="40" as="geometry" />
        </mxCell>
        <mxCell id="bziECuRTAR9rfFPs8nf1-15" value="User_name" style="ellipse;whiteSpace=wrap;html=1;align=center;" parent="1" vertex="1">
          <mxGeometry x="530" y="50" width="100" height="40" as="geometry" />
        </mxCell>
        <mxCell id="bziECuRTAR9rfFPs8nf1-17" value="User_number" style="ellipse;whiteSpace=wrap;html=1;align=center;" parent="1" vertex="1">
          <mxGeometry x="430" y="220" width="100" height="40" as="geometry" />
        </mxCell>
        <mxCell id="bziECuRTAR9rfFPs8nf1-18" value="User_email" style="ellipse;whiteSpace=wrap;html=1;align=center;" parent="1" vertex="1">
          <mxGeometry x="590" y="220" width="100" height="40" as="geometry" />
        </mxCell>
        <mxCell id="bziECuRTAR9rfFPs8nf1-19" value="Age" style="ellipse;whiteSpace=wrap;html=1;align=center;dashed=1;" parent="1" vertex="1">
          <mxGeometry x="660" y="50" width="100" height="40" as="geometry" />
        </mxCell>
        <mxCell id="bziECuRTAR9rfFPs8nf1-20" value="" style="endArrow=none;html=1;rounded=0;exitX=0.5;exitY=1;exitDx=0;exitDy=0;entryX=0.5;entryY=0;entryDx=0;entryDy=0;" parent="1" source="bziECuRTAR9rfFPs8nf1-13" target="bziECuRTAR9rfFPs8nf1-12" edge="1">
          <mxGeometry relative="1" as="geometry">
            <mxPoint x="380" y="220" as="sourcePoint" />
            <mxPoint x="540" y="220" as="targetPoint" />
          </mxGeometry>
        </mxCell>
        <mxCell id="bziECuRTAR9rfFPs8nf1-21" value="" style="endArrow=none;html=1;rounded=0;exitX=0.5;exitY=1;exitDx=0;exitDy=0;entryX=0.5;entryY=0;entryDx=0;entryDy=0;" parent="1" source="bziECuRTAR9rfFPs8nf1-15" target="bziECuRTAR9rfFPs8nf1-12" edge="1">
          <mxGeometry relative="1" as="geometry">
            <mxPoint x="380" y="220" as="sourcePoint" />
            <mxPoint x="540" y="220" as="targetPoint" />
          </mxGeometry>
        </mxCell>
        <mxCell id="bziECuRTAR9rfFPs8nf1-22" value="" style="endArrow=none;html=1;rounded=0;exitX=0.5;exitY=1;exitDx=0;exitDy=0;entryX=0.5;entryY=0;entryDx=0;entryDy=0;" parent="1" source="bziECuRTAR9rfFPs8nf1-19" target="bziECuRTAR9rfFPs8nf1-12" edge="1">
          <mxGeometry relative="1" as="geometry">
            <mxPoint x="380" y="220" as="sourcePoint" />
            <mxPoint x="540" y="220" as="targetPoint" />
          </mxGeometry>
        </mxCell>
        <mxCell id="bziECuRTAR9rfFPs8nf1-23" value="" style="endArrow=none;html=1;rounded=0;entryX=0.5;entryY=1;entryDx=0;entryDy=0;exitX=0.5;exitY=0;exitDx=0;exitDy=0;" parent="1" source="bziECuRTAR9rfFPs8nf1-17" target="bziECuRTAR9rfFPs8nf1-12" edge="1">
          <mxGeometry relative="1" as="geometry">
            <mxPoint x="380" y="220" as="sourcePoint" />
            <mxPoint x="540" y="220" as="targetPoint" />
          </mxGeometry>
        </mxCell>
        <mxCell id="bziECuRTAR9rfFPs8nf1-24" value="" style="endArrow=none;html=1;rounded=0;exitX=0.5;exitY=0;exitDx=0;exitDy=0;" parent="1" source="bziECuRTAR9rfFPs8nf1-18" edge="1">
          <mxGeometry relative="1" as="geometry">
            <mxPoint x="380" y="220" as="sourcePoint" />
            <mxPoint x="570" y="180" as="targetPoint" />
          </mxGeometry>
        </mxCell>
        <mxCell id="bziECuRTAR9rfFPs8nf1-26" value="Topics_table" style="whiteSpace=wrap;html=1;align=center;" parent="1" vertex="1">
          <mxGeometry x="850" y="140" width="100" height="40" as="geometry" />
        </mxCell>
        <mxCell id="bziECuRTAR9rfFPs8nf1-28" value="Topic_id" style="ellipse;whiteSpace=wrap;html=1;align=center;fontStyle=4;" parent="1" vertex="1">
          <mxGeometry x="850" y="50" width="100" height="40" as="geometry" />
        </mxCell>
        <mxCell id="bziECuRTAR9rfFPs8nf1-29" value="Topic_name" style="ellipse;whiteSpace=wrap;html=1;align=center;" parent="1" vertex="1">
          <mxGeometry x="850" y="230" width="100" height="40" as="geometry" />
        </mxCell>
        <mxCell id="bziECuRTAR9rfFPs8nf1-30" value="" style="endArrow=none;html=1;rounded=0;exitX=0.5;exitY=1;exitDx=0;exitDy=0;entryX=0.5;entryY=0;entryDx=0;entryDy=0;" parent="1" source="bziECuRTAR9rfFPs8nf1-28" target="bziECuRTAR9rfFPs8nf1-26" edge="1">
          <mxGeometry relative="1" as="geometry">
            <mxPoint x="610" y="280" as="sourcePoint" />
            <mxPoint x="770" y="280" as="targetPoint" />
          </mxGeometry>
        </mxCell>
        <mxCell id="bziECuRTAR9rfFPs8nf1-32" value="" style="endArrow=none;html=1;rounded=0;exitX=0.5;exitY=1;exitDx=0;exitDy=0;entryX=0.5;entryY=0;entryDx=0;entryDy=0;" parent="1" source="bziECuRTAR9rfFPs8nf1-26" target="bziECuRTAR9rfFPs8nf1-29" edge="1">
          <mxGeometry relative="1" as="geometry">
            <mxPoint x="610" y="280" as="sourcePoint" />
            <mxPoint x="770" y="280" as="targetPoint" />
          </mxGeometry>
        </mxCell>
        <mxCell id="bziECuRTAR9rfFPs8nf1-33" value="Questions" style="whiteSpace=wrap;html=1;align=center;" parent="1" vertex="1">
          <mxGeometry x="1210" y="140" width="100" height="40" as="geometry" />
        </mxCell>
        <mxCell id="bziECuRTAR9rfFPs8nf1-34" value="Has" style="shape=rhombus;perimeter=rhombusPerimeter;whiteSpace=wrap;html=1;align=center;" parent="1" vertex="1">
          <mxGeometry x="1010" y="130" width="120" height="60" as="geometry" />
        </mxCell>
        <mxCell id="bziECuRTAR9rfFPs8nf1-37" value="" style="endArrow=none;html=1;rounded=0;exitX=1;exitY=0.5;exitDx=0;exitDy=0;entryX=0;entryY=0.5;entryDx=0;entryDy=0;" parent="1" source="bziECuRTAR9rfFPs8nf1-26" target="bziECuRTAR9rfFPs8nf1-34" edge="1">
          <mxGeometry relative="1" as="geometry">
            <mxPoint x="930" y="210" as="sourcePoint" />
            <mxPoint x="1090" y="210" as="targetPoint" />
          </mxGeometry>
        </mxCell>
        <mxCell id="bziECuRTAR9rfFPs8nf1-38" value="" style="endArrow=none;html=1;rounded=0;exitX=1;exitY=0.5;exitDx=0;exitDy=0;entryX=0;entryY=0.5;entryDx=0;entryDy=0;" parent="1" source="bziECuRTAR9rfFPs8nf1-34" target="bziECuRTAR9rfFPs8nf1-33" edge="1">
          <mxGeometry relative="1" as="geometry">
            <mxPoint x="930" y="210" as="sourcePoint" />
            <mxPoint x="1090" y="210" as="targetPoint" />
          </mxGeometry>
        </mxCell>
        <mxCell id="bziECuRTAR9rfFPs8nf1-39" value="N" style="text;html=1;align=center;verticalAlign=middle;resizable=0;points=[];autosize=1;strokeColor=none;fillColor=none;" parent="1" vertex="1">
          <mxGeometry x="950" y="130" width="30" height="30" as="geometry" />
        </mxCell>
        <mxCell id="bziECuRTAR9rfFPs8nf1-40" value="N" style="text;html=1;align=center;verticalAlign=middle;resizable=0;points=[];autosize=1;strokeColor=none;fillColor=none;" parent="1" vertex="1">
          <mxGeometry x="1150" y="130" width="30" height="30" as="geometry" />
        </mxCell>
        <mxCell id="bziECuRTAR9rfFPs8nf1-41" value="Question" style="ellipse;whiteSpace=wrap;html=1;align=center;" parent="1" vertex="1">
          <mxGeometry x="1190" y="10" width="100" height="40" as="geometry" />
        </mxCell>
        <mxCell id="bziECuRTAR9rfFPs8nf1-42" value="Question_id" style="ellipse;whiteSpace=wrap;html=1;align=center;fontStyle=4;" parent="1" vertex="1">
          <mxGeometry x="1100" y="50" width="100" height="40" as="geometry" />
        </mxCell>
        <mxCell id="bziECuRTAR9rfFPs8nf1-43" value="Answer" style="ellipse;whiteSpace=wrap;html=1;align=center;" parent="1" vertex="1">
          <mxGeometry x="1300" y="20" width="100" height="40" as="geometry" />
        </mxCell>
        <mxCell id="bziECuRTAR9rfFPs8nf1-44" value="Explanation" style="ellipse;whiteSpace=wrap;html=1;align=center;" parent="1" vertex="1">
          <mxGeometry x="1350" y="220" width="100" height="40" as="geometry" />
        </mxCell>
        <mxCell id="bziECuRTAR9rfFPs8nf1-45" value="Difficulty_id" style="ellipse;whiteSpace=wrap;html=1;align=center;" parent="1" vertex="1">
          <mxGeometry x="1370" y="150" width="100" height="40" as="geometry" />
        </mxCell>
        <mxCell id="bziECuRTAR9rfFPs8nf1-46" value="Format_id" style="ellipse;whiteSpace=wrap;html=1;align=center;" parent="1" vertex="1">
          <mxGeometry x="1360" y="80" width="100" height="40" as="geometry" />
        </mxCell>
        <mxCell id="bziECuRTAR9rfFPs8nf1-47" value="" style="endArrow=none;html=1;rounded=0;exitX=0.577;exitY=1;exitDx=0;exitDy=0;exitPerimeter=0;entryX=0.5;entryY=0;entryDx=0;entryDy=0;" parent="1" source="bziECuRTAR9rfFPs8nf1-42" target="bziECuRTAR9rfFPs8nf1-33" edge="1">
          <mxGeometry relative="1" as="geometry">
            <mxPoint x="1060" y="170" as="sourcePoint" />
            <mxPoint x="1220" y="170" as="targetPoint" />
          </mxGeometry>
        </mxCell>
        <mxCell id="bziECuRTAR9rfFPs8nf1-48" value="" style="endArrow=none;html=1;rounded=0;exitX=0.5;exitY=1;exitDx=0;exitDy=0;entryX=0.5;entryY=0;entryDx=0;entryDy=0;" parent="1" source="bziECuRTAR9rfFPs8nf1-41" target="bziECuRTAR9rfFPs8nf1-33" edge="1">
          <mxGeometry relative="1" as="geometry">
            <mxPoint x="1060" y="170" as="sourcePoint" />
            <mxPoint x="1220" y="170" as="targetPoint" />
          </mxGeometry>
        </mxCell>
        <mxCell id="bziECuRTAR9rfFPs8nf1-49" value="" style="endArrow=none;html=1;rounded=0;exitX=0.5;exitY=1;exitDx=0;exitDy=0;entryX=0.5;entryY=0;entryDx=0;entryDy=0;" parent="1" source="bziECuRTAR9rfFPs8nf1-43" target="bziECuRTAR9rfFPs8nf1-33" edge="1">
          <mxGeometry relative="1" as="geometry">
            <mxPoint x="1060" y="170" as="sourcePoint" />
            <mxPoint x="1220" y="170" as="targetPoint" />
          </mxGeometry>
        </mxCell>
        <mxCell id="bziECuRTAR9rfFPs8nf1-50" value="" style="endArrow=none;html=1;rounded=0;exitX=0.5;exitY=1;exitDx=0;exitDy=0;entryX=0.5;entryY=0;entryDx=0;entryDy=0;" parent="1" source="bziECuRTAR9rfFPs8nf1-33" target="bziECuRTAR9rfFPs8nf1-44" edge="1">
          <mxGeometry relative="1" as="geometry">
            <mxPoint x="1060" y="270" as="sourcePoint" />
            <mxPoint x="1220" y="270" as="targetPoint" />
          </mxGeometry>
        </mxCell>
        <mxCell id="bziECuRTAR9rfFPs8nf1-55" value="" style="endArrow=none;html=1;rounded=0;exitX=1;exitY=0.5;exitDx=0;exitDy=0;entryX=0;entryY=1;entryDx=0;entryDy=0;" parent="1" source="bziECuRTAR9rfFPs8nf1-33" target="bziECuRTAR9rfFPs8nf1-46" edge="1">
          <mxGeometry relative="1" as="geometry">
            <mxPoint x="1060" y="270" as="sourcePoint" />
            <mxPoint x="1220" y="270" as="targetPoint" />
          </mxGeometry>
        </mxCell>
        <mxCell id="bziECuRTAR9rfFPs8nf1-56" value="" style="endArrow=none;html=1;rounded=0;exitX=1;exitY=0.75;exitDx=0;exitDy=0;entryX=0;entryY=0.5;entryDx=0;entryDy=0;" parent="1" source="bziECuRTAR9rfFPs8nf1-33" target="bziECuRTAR9rfFPs8nf1-45" edge="1">
          <mxGeometry relative="1" as="geometry">
            <mxPoint x="1060" y="170" as="sourcePoint" />
            <mxPoint x="1220" y="170" as="targetPoint" />
          </mxGeometry>
        </mxCell>
        <mxCell id="bziECuRTAR9rfFPs8nf1-57" value="Difficulty_table" style="whiteSpace=wrap;html=1;align=center;" parent="1" vertex="1">
          <mxGeometry x="1050" y="360" width="100" height="40" as="geometry" />
        </mxCell>
        <mxCell id="bziECuRTAR9rfFPs8nf1-58" value="Question_format&lt;br&gt;Table" style="whiteSpace=wrap;html=1;align=center;" parent="1" vertex="1">
          <mxGeometry x="1310" y="360" width="100" height="40" as="geometry" />
        </mxCell>
        <mxCell id="bziECuRTAR9rfFPs8nf1-59" value="Has" style="shape=rhombus;perimeter=rhombusPerimeter;whiteSpace=wrap;html=1;align=center;" parent="1" vertex="1">
          <mxGeometry x="1060" y="250" width="100" height="50" as="geometry" />
        </mxCell>
        <mxCell id="bziECuRTAR9rfFPs8nf1-60" value="Has" style="shape=rhombus;perimeter=rhombusPerimeter;whiteSpace=wrap;html=1;align=center;" parent="1" vertex="1">
          <mxGeometry x="1240" y="245" width="100" height="55" as="geometry" />
        </mxCell>
        <mxCell id="bziECuRTAR9rfFPs8nf1-61" value="" style="endArrow=none;html=1;rounded=0;entryX=0;entryY=1;entryDx=0;entryDy=0;exitX=0.5;exitY=0;exitDx=0;exitDy=0;" parent="1" source="bziECuRTAR9rfFPs8nf1-59" target="bziECuRTAR9rfFPs8nf1-33" edge="1">
          <mxGeometry relative="1" as="geometry">
            <mxPoint x="1040" y="250" as="sourcePoint" />
            <mxPoint x="1200" y="250" as="targetPoint" />
          </mxGeometry>
        </mxCell>
        <mxCell id="bziECuRTAR9rfFPs8nf1-62" value="" style="endArrow=none;html=1;rounded=0;exitX=0.5;exitY=0;exitDx=0;exitDy=0;entryX=0.5;entryY=1;entryDx=0;entryDy=0;" parent="1" source="bziECuRTAR9rfFPs8nf1-57" target="bziECuRTAR9rfFPs8nf1-59" edge="1">
          <mxGeometry relative="1" as="geometry">
            <mxPoint x="1040" y="250" as="sourcePoint" />
            <mxPoint x="1200" y="250" as="targetPoint" />
          </mxGeometry>
        </mxCell>
        <mxCell id="bziECuRTAR9rfFPs8nf1-63" value="N" style="text;html=1;align=center;verticalAlign=middle;resizable=0;points=[];autosize=1;strokeColor=none;fillColor=none;" parent="1" vertex="1">
          <mxGeometry x="1170" y="175" width="30" height="30" as="geometry" />
        </mxCell>
        <mxCell id="bziECuRTAR9rfFPs8nf1-64" value="1" style="text;html=1;align=center;verticalAlign=middle;resizable=0;points=[];autosize=1;strokeColor=none;fillColor=none;" parent="1" vertex="1">
          <mxGeometry x="1100" y="330" width="30" height="30" as="geometry" />
        </mxCell>
        <mxCell id="bziECuRTAR9rfFPs8nf1-65" value="" style="endArrow=none;html=1;rounded=0;exitX=0.5;exitY=1;exitDx=0;exitDy=0;entryX=0.5;entryY=0;entryDx=0;entryDy=0;" parent="1" source="bziECuRTAR9rfFPs8nf1-33" target="bziECuRTAR9rfFPs8nf1-60" edge="1">
          <mxGeometry relative="1" as="geometry">
            <mxPoint x="1040" y="250" as="sourcePoint" />
            <mxPoint x="1200" y="250" as="targetPoint" />
          </mxGeometry>
        </mxCell>
        <mxCell id="bziECuRTAR9rfFPs8nf1-66" value="N" style="text;html=1;align=center;verticalAlign=middle;resizable=0;points=[];autosize=1;strokeColor=none;fillColor=none;" parent="1" vertex="1">
          <mxGeometry x="1245" y="190" width="30" height="30" as="geometry" />
        </mxCell>
        <mxCell id="bziECuRTAR9rfFPs8nf1-67" value="" style="endArrow=none;html=1;rounded=0;exitX=0.5;exitY=1;exitDx=0;exitDy=0;entryX=0.5;entryY=0;entryDx=0;entryDy=0;" parent="1" source="bziECuRTAR9rfFPs8nf1-60" target="bziECuRTAR9rfFPs8nf1-58" edge="1">
          <mxGeometry relative="1" as="geometry">
            <mxPoint x="1040" y="250" as="sourcePoint" />
            <mxPoint x="1200" y="250" as="targetPoint" />
          </mxGeometry>
        </mxCell>
        <mxCell id="bziECuRTAR9rfFPs8nf1-68" value="1" style="text;html=1;align=center;verticalAlign=middle;resizable=0;points=[];autosize=1;strokeColor=none;fillColor=none;" parent="1" vertex="1">
          <mxGeometry x="1345" y="330" width="30" height="30" as="geometry" />
        </mxCell>
        <mxCell id="bziECuRTAR9rfFPs8nf1-69" value="Difficulty_name" style="ellipse;whiteSpace=wrap;html=1;align=center;" parent="1" vertex="1">
          <mxGeometry x="1115" y="450" width="100" height="40" as="geometry" />
        </mxCell>
        <mxCell id="bziECuRTAR9rfFPs8nf1-70" value="Difficulty_id" style="ellipse;whiteSpace=wrap;html=1;align=center;fontStyle=4;" parent="1" vertex="1">
          <mxGeometry x="970" y="450" width="100" height="40" as="geometry" />
        </mxCell>
        <mxCell id="bziECuRTAR9rfFPs8nf1-71" value="Format_id" style="ellipse;whiteSpace=wrap;html=1;align=center;fontStyle=4;" parent="1" vertex="1">
          <mxGeometry x="1250" y="450" width="100" height="40" as="geometry" />
        </mxCell>
        <mxCell id="bziECuRTAR9rfFPs8nf1-72" value="Format_name" style="ellipse;whiteSpace=wrap;html=1;align=center;" parent="1" vertex="1">
          <mxGeometry x="1400" y="450" width="100" height="40" as="geometry" />
        </mxCell>
        <mxCell id="bziECuRTAR9rfFPs8nf1-73" value="" style="endArrow=none;html=1;rounded=0;exitX=0.5;exitY=1;exitDx=0;exitDy=0;entryX=0.5;entryY=0;entryDx=0;entryDy=0;" parent="1" source="bziECuRTAR9rfFPs8nf1-57" target="bziECuRTAR9rfFPs8nf1-70" edge="1">
          <mxGeometry relative="1" as="geometry">
            <mxPoint x="990" y="390" as="sourcePoint" />
            <mxPoint x="1150" y="390" as="targetPoint" />
          </mxGeometry>
        </mxCell>
        <mxCell id="bziECuRTAR9rfFPs8nf1-74" value="" style="endArrow=none;html=1;rounded=0;entryX=0.5;entryY=0;entryDx=0;entryDy=0;" parent="1" target="bziECuRTAR9rfFPs8nf1-69" edge="1">
          <mxGeometry relative="1" as="geometry">
            <mxPoint x="1100" y="400" as="sourcePoint" />
            <mxPoint x="1150" y="390" as="targetPoint" />
          </mxGeometry>
        </mxCell>
        <mxCell id="bziECuRTAR9rfFPs8nf1-76" value="" style="endArrow=none;html=1;rounded=0;exitX=0.5;exitY=1;exitDx=0;exitDy=0;entryX=0.5;entryY=0;entryDx=0;entryDy=0;" parent="1" source="bziECuRTAR9rfFPs8nf1-58" target="bziECuRTAR9rfFPs8nf1-71" edge="1">
          <mxGeometry relative="1" as="geometry">
            <mxPoint x="990" y="390" as="sourcePoint" />
            <mxPoint x="1150" y="390" as="targetPoint" />
          </mxGeometry>
        </mxCell>
        <mxCell id="bziECuRTAR9rfFPs8nf1-77" value="" style="endArrow=none;html=1;rounded=0;entryX=0.5;entryY=1;entryDx=0;entryDy=0;exitX=0.5;exitY=0;exitDx=0;exitDy=0;" parent="1" source="bziECuRTAR9rfFPs8nf1-72" target="bziECuRTAR9rfFPs8nf1-58" edge="1">
          <mxGeometry relative="1" as="geometry">
            <mxPoint x="990" y="390" as="sourcePoint" />
            <mxPoint x="1150" y="390" as="targetPoint" />
          </mxGeometry>
        </mxCell>
        <mxCell id="bziECuRTAR9rfFPs8nf1-84" value="" style="endArrow=none;html=1;rounded=0;exitX=1;exitY=0.5;exitDx=0;exitDy=0;entryX=0.25;entryY=0;entryDx=0;entryDy=0;" parent="1" edge="1">
          <mxGeometry relative="1" as="geometry">
            <mxPoint x="-370" y="355" as="sourcePoint" />
            <mxPoint x="-325" y="385" as="targetPoint" />
          </mxGeometry>
        </mxCell>
        <mxCell id="bziECuRTAR9rfFPs8nf1-85" value="" style="endArrow=none;html=1;rounded=0;exitX=1;exitY=0.5;exitDx=0;exitDy=0;entryX=0.25;entryY=1;entryDx=0;entryDy=0;" parent="1" source="bziECuRTAR9rfFPs8nf1-86" edge="1">
          <mxGeometry relative="1" as="geometry">
            <mxPoint x="-359.9999999999998" y="475" as="sourcePoint" />
            <mxPoint x="-325" y="425" as="targetPoint" />
          </mxGeometry>
        </mxCell>
        <mxCell id="bziECuRTAR9rfFPs8nf1-86" value="Quiz_id" style="ellipse;whiteSpace=wrap;html=1;align=center;fontStyle=4;" parent="1" vertex="1">
          <mxGeometry x="-470" y="425" width="100" height="40" as="geometry" />
        </mxCell>
        <mxCell id="bziECuRTAR9rfFPs8nf1-87" value="Creates&lt;div&gt;or uses&lt;/div&gt;" style="shape=rhombus;perimeter=rhombusPerimeter;whiteSpace=wrap;html=1;align=center;" parent="1" vertex="1">
          <mxGeometry x="-380" y="275" width="110" height="50" as="geometry" />
        </mxCell>
        <mxCell id="bziECuRTAR9rfFPs8nf1-88" value="" style="endArrow=none;html=1;rounded=0;exitX=0.5;exitY=1;exitDx=0;exitDy=0;entryX=0.5;entryY=0;entryDx=0;entryDy=0;" parent="1" source="bziECuRTAR9rfFPs8nf1-1" target="bziECuRTAR9rfFPs8nf1-87" edge="1">
          <mxGeometry relative="1" as="geometry">
            <mxPoint x="-120" y="275" as="sourcePoint" />
            <mxPoint x="40" y="275" as="targetPoint" />
          </mxGeometry>
        </mxCell>
        <mxCell id="bziECuRTAR9rfFPs8nf1-89" value="" style="endArrow=none;html=1;rounded=0;exitX=0.5;exitY=1;exitDx=0;exitDy=0;entryX=0.5;entryY=0;entryDx=0;entryDy=0;" parent="1" source="bziECuRTAR9rfFPs8nf1-87" edge="1">
          <mxGeometry relative="1" as="geometry">
            <mxPoint x="-120" y="275" as="sourcePoint" />
            <mxPoint x="-300" y="385" as="targetPoint" />
          </mxGeometry>
        </mxCell>
        <mxCell id="bziECuRTAR9rfFPs8nf1-90" value="N" style="text;html=1;align=center;verticalAlign=middle;resizable=0;points=[];autosize=1;strokeColor=none;fillColor=none;" parent="1" vertex="1">
          <mxGeometry x="-350" y="165" width="30" height="30" as="geometry" />
        </mxCell>
        <mxCell id="bziECuRTAR9rfFPs8nf1-91" value="N" style="text;html=1;align=center;verticalAlign=middle;resizable=0;points=[];autosize=1;strokeColor=none;fillColor=none;" parent="1" vertex="1">
          <mxGeometry x="-315" y="355" width="30" height="30" as="geometry" />
        </mxCell>
        <mxCell id="bziECuRTAR9rfFPs8nf1-125" value="Group_id" style="ellipse;whiteSpace=wrap;html=1;align=center;fontStyle=4;" parent="1" vertex="1">
          <mxGeometry x="-40" y="20" width="100" height="40" as="geometry" />
        </mxCell>
        <mxCell id="bziECuRTAR9rfFPs8nf1-127" value="Creates" style="shape=rhombus;perimeter=rhombusPerimeter;whiteSpace=wrap;html=1;align=center;" parent="1" vertex="1">
          <mxGeometry x="-200" y="105" width="120" height="60" as="geometry" />
        </mxCell>
        <mxCell id="bziECuRTAR9rfFPs8nf1-129" value="" style="endArrow=none;html=1;rounded=0;exitX=1;exitY=0.5;exitDx=0;exitDy=0;entryX=0;entryY=0.5;entryDx=0;entryDy=0;" parent="1" source="bziECuRTAR9rfFPs8nf1-1" target="bziECuRTAR9rfFPs8nf1-127" edge="1">
          <mxGeometry relative="1" as="geometry">
            <mxPoint x="-30" y="280" as="sourcePoint" />
            <mxPoint x="130" y="280" as="targetPoint" />
          </mxGeometry>
        </mxCell>
        <mxCell id="bziECuRTAR9rfFPs8nf1-131" value="" style="endArrow=none;html=1;rounded=0;exitX=0.899;exitY=0.606;exitDx=0;exitDy=0;entryX=0;entryY=0.5;entryDx=0;entryDy=0;exitPerimeter=0;" parent="1" edge="1">
          <mxGeometry relative="1" as="geometry">
            <mxPoint x="-86.05999999999989" y="139.02999999999994" as="sourcePoint" />
            <mxPoint x="46.06" y="140" as="targetPoint" />
          </mxGeometry>
        </mxCell>
        <mxCell id="bziECuRTAR9rfFPs8nf1-132" value="1" style="text;html=1;align=center;verticalAlign=middle;resizable=0;points=[];autosize=1;strokeColor=none;fillColor=none;" parent="1" vertex="1">
          <mxGeometry x="-305" y="108" width="30" height="30" as="geometry" />
        </mxCell>
        <mxCell id="bziECuRTAR9rfFPs8nf1-133" value="N" style="text;html=1;align=center;verticalAlign=middle;resizable=0;points=[];autosize=1;strokeColor=none;fillColor=none;" parent="1" vertex="1">
          <mxGeometry x="10" y="105" width="30" height="30" as="geometry" />
        </mxCell>
        <mxCell id="bziECuRTAR9rfFPs8nf1-135" value="Belongs" style="shape=rhombus;perimeter=rhombusPerimeter;whiteSpace=wrap;html=1;align=center;" parent="1" vertex="1">
          <mxGeometry x="250" y="120" width="120" height="60" as="geometry" />
        </mxCell>
        <mxCell id="bziECuRTAR9rfFPs8nf1-137" value="" style="endArrow=none;html=1;rounded=0;exitX=1;exitY=0.5;exitDx=0;exitDy=0;entryX=0;entryY=0.5;entryDx=0;entryDy=0;" parent="1" source="ULbYfJg5A491xoH4sD0i-3" target="bziECuRTAR9rfFPs8nf1-135" edge="1">
          <mxGeometry relative="1" as="geometry">
            <mxPoint x="140" y="135" as="sourcePoint" />
            <mxPoint x="300" y="270" as="targetPoint" />
          </mxGeometry>
        </mxCell>
        <mxCell id="bziECuRTAR9rfFPs8nf1-139" value="" style="endArrow=none;html=1;rounded=0;exitX=1;exitY=0.5;exitDx=0;exitDy=0;entryX=0;entryY=0.5;entryDx=0;entryDy=0;" parent="1" source="bziECuRTAR9rfFPs8nf1-135" target="bziECuRTAR9rfFPs8nf1-12" edge="1">
          <mxGeometry relative="1" as="geometry">
            <mxPoint x="140" y="270" as="sourcePoint" />
            <mxPoint x="300" y="270" as="targetPoint" />
          </mxGeometry>
        </mxCell>
        <mxCell id="bziECuRTAR9rfFPs8nf1-140" value="N" style="text;html=1;align=center;verticalAlign=middle;resizable=0;points=[];autosize=1;strokeColor=none;fillColor=none;" parent="1" vertex="1">
          <mxGeometry x="135" y="100" width="30" height="30" as="geometry" />
        </mxCell>
        <mxCell id="bziECuRTAR9rfFPs8nf1-141" value="N" style="text;html=1;align=center;verticalAlign=middle;resizable=0;points=[];autosize=1;strokeColor=none;fillColor=none;" parent="1" vertex="1">
          <mxGeometry x="485" y="128" width="30" height="30" as="geometry" />
        </mxCell>
        <mxCell id="bziECuRTAR9rfFPs8nf1-142" value="" style="endArrow=none;html=1;rounded=0;exitX=0.5;exitY=1;exitDx=0;exitDy=0;entryX=0.5;entryY=0;entryDx=0;entryDy=0;" parent="1" source="bziECuRTAR9rfFPs8nf1-125" target="ULbYfJg5A491xoH4sD0i-3" edge="1">
          <mxGeometry relative="1" as="geometry">
            <mxPoint x="140" y="270" as="sourcePoint" />
            <mxPoint x="90" y="115" as="targetPoint" />
          </mxGeometry>
        </mxCell>
        <mxCell id="bziECuRTAR9rfFPs8nf1-144" value="" style="endArrow=none;html=1;rounded=0;exitX=0.5;exitY=0;exitDx=0;exitDy=0;entryX=0.5;entryY=1;entryDx=0;entryDy=0;exitPerimeter=0;" parent="1" source="ULbYfJg5A491xoH4sD0i-3" target="ULbYfJg5A491xoH4sD0i-1" edge="1">
          <mxGeometry relative="1" as="geometry">
            <mxPoint x="90" y="115" as="sourcePoint" />
            <mxPoint x="180" y="60" as="targetPoint" />
          </mxGeometry>
        </mxCell>
        <mxCell id="bziECuRTAR9rfFPs8nf1-145" value="" style="endArrow=none;html=1;rounded=0;exitX=0.5;exitY=1;exitDx=0;exitDy=0;entryX=0.5;entryY=0;entryDx=0;entryDy=0;" parent="1" target="ULbYfJg5A491xoH4sD0i-2" edge="1">
          <mxGeometry relative="1" as="geometry">
            <mxPoint x="90" y="155" as="sourcePoint" />
            <mxPoint x="90" y="205" as="targetPoint" />
          </mxGeometry>
        </mxCell>
        <mxCell id="bziECuRTAR9rfFPs8nf1-147" value="Involved" style="shape=rhombus;perimeter=rhombusPerimeter;whiteSpace=wrap;html=1;align=center;" parent="1" vertex="1">
          <mxGeometry x="-160" y="265" width="120" height="60" as="geometry" />
        </mxCell>
        <mxCell id="bziECuRTAR9rfFPs8nf1-148" value="" style="endArrow=none;html=1;rounded=0;exitX=0;exitY=1;exitDx=0;exitDy=0;entryX=0.5;entryY=0;entryDx=0;entryDy=0;" parent="1" target="bziECuRTAR9rfFPs8nf1-147" edge="1">
          <mxGeometry relative="1" as="geometry">
            <mxPoint x="40" y="155" as="sourcePoint" />
            <mxPoint x="150" y="430" as="targetPoint" />
          </mxGeometry>
        </mxCell>
        <mxCell id="bziECuRTAR9rfFPs8nf1-150" value="" style="endArrow=none;html=1;rounded=0;exitX=0.446;exitY=0.952;exitDx=0;exitDy=0;entryX=1;entryY=0;entryDx=0;entryDy=0;exitPerimeter=0;" parent="1" source="bziECuRTAR9rfFPs8nf1-147" edge="1">
          <mxGeometry relative="1" as="geometry">
            <mxPoint x="-10" y="430" as="sourcePoint" />
            <mxPoint x="-250" y="385" as="targetPoint" />
          </mxGeometry>
        </mxCell>
        <mxCell id="bziECuRTAR9rfFPs8nf1-151" value="N" style="text;html=1;align=center;verticalAlign=middle;resizable=0;points=[];autosize=1;strokeColor=none;fillColor=none;" parent="1" vertex="1">
          <mxGeometry x="-265" y="360" width="30" height="30" as="geometry" />
        </mxCell>
        <mxCell id="bziECuRTAR9rfFPs8nf1-152" value="1" style="text;html=1;align=center;verticalAlign=middle;resizable=0;points=[];autosize=1;strokeColor=none;fillColor=none;" parent="1" vertex="1">
          <mxGeometry x="5" y="138" width="30" height="30" as="geometry" />
        </mxCell>
        <mxCell id="bziECuRTAR9rfFPs8nf1-153" value="group_id" style="ellipse;whiteSpace=wrap;html=1;align=center;" parent="1" vertex="1">
          <mxGeometry x="-475" y="520" width="100" height="40" as="geometry" />
        </mxCell>
        <mxCell id="bziECuRTAR9rfFPs8nf1-154" value="" style="endArrow=none;html=1;rounded=0;exitX=0.5;exitY=1;exitDx=0;exitDy=0;entryX=0.5;entryY=0;entryDx=0;entryDy=0;" parent="1" target="bziECuRTAR9rfFPs8nf1-153" edge="1">
          <mxGeometry relative="1" as="geometry">
            <mxPoint x="-300" y="425" as="sourcePoint" />
            <mxPoint x="210" y="270" as="targetPoint" />
          </mxGeometry>
        </mxCell>
        <mxCell id="bziECuRTAR9rfFPs8nf1-155" value="Question_ids" style="ellipse;whiteSpace=wrap;html=1;align=center;" parent="1" vertex="1">
          <mxGeometry x="-235" y="500" width="100" height="40" as="geometry" />
        </mxCell>
        <mxCell id="bziECuRTAR9rfFPs8nf1-156" value="" style="endArrow=none;html=1;rounded=0;exitX=1;exitY=1;exitDx=0;exitDy=0;entryX=0.5;entryY=0;entryDx=0;entryDy=0;" parent="1" target="bziECuRTAR9rfFPs8nf1-155" edge="1">
          <mxGeometry relative="1" as="geometry">
            <mxPoint x="-250" y="425" as="sourcePoint" />
            <mxPoint x="210" y="270" as="targetPoint" />
          </mxGeometry>
        </mxCell>
        <mxCell id="bziECuRTAR9rfFPs8nf1-167" value="User_id" style="ellipse;whiteSpace=wrap;html=1;align=center;" parent="1" vertex="1">
          <mxGeometry x="260" y="335" width="100" height="40" as="geometry" />
        </mxCell>
        <mxCell id="bziECuRTAR9rfFPs8nf1-168" value="Quiz_id" style="ellipse;whiteSpace=wrap;html=1;align=center;" parent="1" vertex="1">
          <mxGeometry x="410" y="405" width="100" height="40" as="geometry" />
        </mxCell>
        <mxCell id="bziECuRTAR9rfFPs8nf1-169" value="Score" style="ellipse;whiteSpace=wrap;html=1;align=center;" parent="1" vertex="1">
          <mxGeometry x="350" y="480" width="100" height="40" as="geometry" />
        </mxCell>
        <mxCell id="bziECuRTAR9rfFPs8nf1-170" value="Pass/Fail" style="ellipse;whiteSpace=wrap;html=1;align=center;" parent="1" vertex="1">
          <mxGeometry x="200" y="520" width="100" height="40" as="geometry" />
        </mxCell>
        <mxCell id="bziECuRTAR9rfFPs8nf1-171" value="Timestamp" style="ellipse;whiteSpace=wrap;html=1;align=center;" parent="1" vertex="1">
          <mxGeometry x="65" y="470" width="100" height="40" as="geometry" />
        </mxCell>
        <mxCell id="bziECuRTAR9rfFPs8nf1-172" value="" style="endArrow=none;html=1;rounded=0;exitX=0.75;exitY=1;exitDx=0;exitDy=0;entryX=0.5;entryY=0;entryDx=0;entryDy=0;" parent="1" target="bziECuRTAR9rfFPs8nf1-173" edge="1">
          <mxGeometry relative="1" as="geometry">
            <mxPoint x="-275" y="425" as="sourcePoint" />
            <mxPoint x="-260" y="570" as="targetPoint" />
          </mxGeometry>
        </mxCell>
        <mxCell id="bziECuRTAR9rfFPs8nf1-173" value="Pass_marks" style="ellipse;whiteSpace=wrap;html=1;align=center;" parent="1" vertex="1">
          <mxGeometry x="-305" y="570" width="100" height="40" as="geometry" />
        </mxCell>
        <mxCell id="bziECuRTAR9rfFPs8nf1-174" value="Time" style="ellipse;whiteSpace=wrap;html=1;align=center;" parent="1" vertex="1">
          <mxGeometry x="-575" y="330" width="100" height="40" as="geometry" />
        </mxCell>
        <mxCell id="bziECuRTAR9rfFPs8nf1-175" value="" style="endArrow=none;html=1;rounded=0;exitX=1;exitY=0.5;exitDx=0;exitDy=0;entryX=0;entryY=0.5;entryDx=0;entryDy=0;" parent="1" source="bziECuRTAR9rfFPs8nf1-174" edge="1">
          <mxGeometry relative="1" as="geometry">
            <mxPoint y="370" as="sourcePoint" />
            <mxPoint x="-350" y="405" as="targetPoint" />
          </mxGeometry>
        </mxCell>
        <mxCell id="bziECuRTAR9rfFPs8nf1-177" value="" style="endArrow=none;html=1;rounded=0;entryX=-0.007;entryY=0.548;entryDx=0;entryDy=0;exitX=1;exitY=0.5;exitDx=0;exitDy=0;entryPerimeter=0;" parent="1" source="bziECuRTAR9rfFPs8nf1-171" target="ULbYfJg5A491xoH4sD0i-24" edge="1">
          <mxGeometry relative="1" as="geometry">
            <mxPoint y="370" as="sourcePoint" />
            <mxPoint x="210" y="440.0000000000001" as="targetPoint" />
          </mxGeometry>
        </mxCell>
        <mxCell id="bziECuRTAR9rfFPs8nf1-178" value="" style="endArrow=none;html=1;rounded=0;entryX=0.5;entryY=1;entryDx=0;entryDy=0;exitX=0.5;exitY=0;exitDx=0;exitDy=0;" parent="1" source="bziECuRTAR9rfFPs8nf1-170" target="ULbYfJg5A491xoH4sD0i-24" edge="1">
          <mxGeometry relative="1" as="geometry">
            <mxPoint y="370" as="sourcePoint" />
            <mxPoint x="265" y="465.0000000000001" as="targetPoint" />
          </mxGeometry>
        </mxCell>
        <mxCell id="bziECuRTAR9rfFPs8nf1-179" value="" style="endArrow=none;html=1;rounded=0;entryX=0.5;entryY=1;entryDx=0;entryDy=0;exitX=0.5;exitY=0;exitDx=0;exitDy=0;" parent="1" source="ULbYfJg5A491xoH4sD0i-24" target="bziECuRTAR9rfFPs8nf1-167" edge="1">
          <mxGeometry relative="1" as="geometry">
            <mxPoint x="265" y="415.0000000000001" as="sourcePoint" />
            <mxPoint x="160" y="370" as="targetPoint" />
          </mxGeometry>
        </mxCell>
        <mxCell id="bziECuRTAR9rfFPs8nf1-180" value="" style="endArrow=none;html=1;rounded=0;entryX=0;entryY=0.5;entryDx=0;entryDy=0;exitX=1;exitY=0.5;exitDx=0;exitDy=0;" parent="1" source="ULbYfJg5A491xoH4sD0i-24" target="bziECuRTAR9rfFPs8nf1-168" edge="1">
          <mxGeometry relative="1" as="geometry">
            <mxPoint x="320" y="440.0000000000001" as="sourcePoint" />
            <mxPoint x="160" y="370" as="targetPoint" />
          </mxGeometry>
        </mxCell>
        <mxCell id="bziECuRTAR9rfFPs8nf1-181" value="" style="endArrow=none;html=1;rounded=0;entryX=0.5;entryY=0;entryDx=0;entryDy=0;exitX=1;exitY=1;exitDx=0;exitDy=0;" parent="1" source="ULbYfJg5A491xoH4sD0i-24" target="bziECuRTAR9rfFPs8nf1-169" edge="1">
          <mxGeometry relative="1" as="geometry">
            <mxPoint x="320" y="465.0000000000001" as="sourcePoint" />
            <mxPoint x="160" y="370" as="targetPoint" />
          </mxGeometry>
        </mxCell>
        <mxCell id="bziECuRTAR9rfFPs8nf1-183" value="Has" style="shape=rhombus;perimeter=rhombusPerimeter;whiteSpace=wrap;html=1;align=center;" parent="1" vertex="1">
          <mxGeometry x="510" y="315" width="120" height="60" as="geometry" />
        </mxCell>
        <mxCell id="bziECuRTAR9rfFPs8nf1-184" value="" style="endArrow=none;html=1;rounded=0;exitX=0.5;exitY=1;exitDx=0;exitDy=0;entryX=0.5;entryY=0;entryDx=0;entryDy=0;" parent="1" source="bziECuRTAR9rfFPs8nf1-12" target="bziECuRTAR9rfFPs8nf1-183" edge="1">
          <mxGeometry relative="1" as="geometry">
            <mxPoint x="150" y="360" as="sourcePoint" />
            <mxPoint x="310" y="360" as="targetPoint" />
          </mxGeometry>
        </mxCell>
        <mxCell id="bziECuRTAR9rfFPs8nf1-186" value="" style="endArrow=none;html=1;rounded=0;entryX=0;entryY=0.5;entryDx=0;entryDy=0;exitX=0.328;exitY=1.091;exitDx=0;exitDy=0;exitPerimeter=0;" parent="1" source="bziECuRTAR9rfFPs8nf1-188" target="bziECuRTAR9rfFPs8nf1-183" edge="1">
          <mxGeometry relative="1" as="geometry">
            <mxPoint x="320" y="415.0000000000001" as="sourcePoint" />
            <mxPoint x="310" y="360" as="targetPoint" />
          </mxGeometry>
        </mxCell>
        <mxCell id="bziECuRTAR9rfFPs8nf1-187" value="N" style="text;html=1;align=center;verticalAlign=middle;resizable=0;points=[];autosize=1;strokeColor=none;fillColor=none;" parent="1" vertex="1">
          <mxGeometry x="545" y="188" width="30" height="30" as="geometry" />
        </mxCell>
        <mxCell id="bziECuRTAR9rfFPs8nf1-188" value="N" style="text;html=1;align=center;verticalAlign=middle;resizable=0;points=[];autosize=1;strokeColor=none;fillColor=none;" parent="1" vertex="1">
          <mxGeometry x="300" y="385" width="30" height="30" as="geometry" />
        </mxCell>
        <mxCell id="bziECuRTAR9rfFPs8nf1-189" value="Has" style="shape=rhombus;perimeter=rhombusPerimeter;whiteSpace=wrap;html=1;align=center;" parent="1" vertex="1">
          <mxGeometry x="-80" y="385" width="120" height="60" as="geometry" />
        </mxCell>
        <mxCell id="bziECuRTAR9rfFPs8nf1-190" value="" style="endArrow=none;html=1;rounded=0;exitX=1;exitY=0.5;exitDx=0;exitDy=0;entryX=0;entryY=0.5;entryDx=0;entryDy=0;" parent="1" target="bziECuRTAR9rfFPs8nf1-189" edge="1">
          <mxGeometry relative="1" as="geometry">
            <mxPoint x="-250" y="405" as="sourcePoint" />
            <mxPoint x="310" y="360" as="targetPoint" />
          </mxGeometry>
        </mxCell>
        <mxCell id="bziECuRTAR9rfFPs8nf1-191" value="" style="endArrow=none;html=1;rounded=0;exitX=1;exitY=0.5;exitDx=0;exitDy=0;entryX=-0.01;entryY=0.544;entryDx=0;entryDy=0;entryPerimeter=0;" parent="1" source="bziECuRTAR9rfFPs8nf1-189" target="ULbYfJg5A491xoH4sD0i-24" edge="1">
          <mxGeometry relative="1" as="geometry">
            <mxPoint x="150" y="360" as="sourcePoint" />
            <mxPoint x="210" y="440.0000000000001" as="targetPoint" />
          </mxGeometry>
        </mxCell>
        <mxCell id="ULbYfJg5A491xoH4sD0i-1" value="Instructor_id" style="ellipse;whiteSpace=wrap;html=1;align=center;" parent="1" vertex="1">
          <mxGeometry x="135" y="20" width="100" height="40" as="geometry" />
        </mxCell>
        <mxCell id="ULbYfJg5A491xoH4sD0i-2" value="User_ids" style="ellipse;whiteSpace=wrap;html=1;align=center;" parent="1" vertex="1">
          <mxGeometry x="40" y="205" width="100" height="40" as="geometry" />
        </mxCell>
        <mxCell id="ULbYfJg5A491xoH4sD0i-3" value="Groups_table" style="shape=ext;margin=3;double=1;whiteSpace=wrap;html=1;align=center;" parent="1" vertex="1">
          <mxGeometry x="40" y="115" width="100" height="40" as="geometry" />
        </mxCell>
        <mxCell id="ULbYfJg5A491xoH4sD0i-4" value="" style="endArrow=none;html=1;rounded=0;exitX=0.929;exitY=0.413;exitDx=0;exitDy=0;exitPerimeter=0;entryX=-0.027;entryY=0.384;entryDx=0;entryDy=0;entryPerimeter=0;" parent="1" edge="1">
          <mxGeometry relative="1" as="geometry">
            <mxPoint x="-85.81999999999998" y="129.99999999999997" as="sourcePoint" />
            <mxPoint x="40.000000000000185" y="130.57999999999996" as="targetPoint" />
          </mxGeometry>
        </mxCell>
        <mxCell id="ULbYfJg5A491xoH4sD0i-6" value="" style="endArrow=none;html=1;rounded=0;exitX=1.003;exitY=0.371;exitDx=0;exitDy=0;exitPerimeter=0;entryX=0.042;entryY=0.436;entryDx=0;entryDy=0;entryPerimeter=0;" parent="1" source="ULbYfJg5A491xoH4sD0i-3" target="bziECuRTAR9rfFPs8nf1-135" edge="1">
          <mxGeometry relative="1" as="geometry">
            <mxPoint x="140" y="150" as="sourcePoint" />
            <mxPoint x="300" y="150" as="targetPoint" />
          </mxGeometry>
        </mxCell>
        <mxCell id="ULbYfJg5A491xoH4sD0i-7" value="" style="resizable=0;html=1;whiteSpace=wrap;align=right;verticalAlign=bottom;" parent="ULbYfJg5A491xoH4sD0i-6" connectable="0" vertex="1">
          <mxGeometry x="1" relative="1" as="geometry" />
        </mxCell>
        <mxCell id="ULbYfJg5A491xoH4sD0i-9" value="" style="endArrow=none;html=1;rounded=0;exitX=0.499;exitY=1.016;exitDx=0;exitDy=0;exitPerimeter=0;entryX=0.5;entryY=1;entryDx=0;entryDy=0;" parent="1" source="bziECuRTAR9rfFPs8nf1-151" target="bziECuRTAR9rfFPs8nf1-147" edge="1">
          <mxGeometry relative="1" as="geometry">
            <mxPoint x="-290" y="400" as="sourcePoint" />
            <mxPoint x="-100" y="330" as="targetPoint" />
          </mxGeometry>
        </mxCell>
        <mxCell id="ULbYfJg5A491xoH4sD0i-10" value="" style="resizable=0;html=1;whiteSpace=wrap;align=right;verticalAlign=bottom;" parent="ULbYfJg5A491xoH4sD0i-9" connectable="0" vertex="1">
          <mxGeometry x="1" relative="1" as="geometry" />
        </mxCell>
        <mxCell id="ULbYfJg5A491xoH4sD0i-11" value="" style="endArrow=none;html=1;rounded=0;exitX=0.443;exitY=0.955;exitDx=0;exitDy=0;exitPerimeter=0;entryX=0.356;entryY=1.008;entryDx=0;entryDy=0;entryPerimeter=0;" parent="1" source="bziECuRTAR9rfFPs8nf1-87" target="bziECuRTAR9rfFPs8nf1-91" edge="1">
          <mxGeometry relative="1" as="geometry">
            <mxPoint x="-330" y="370" as="sourcePoint" />
            <mxPoint x="-170" y="370" as="targetPoint" />
          </mxGeometry>
        </mxCell>
        <mxCell id="ULbYfJg5A491xoH4sD0i-12" value="" style="resizable=0;html=1;whiteSpace=wrap;align=right;verticalAlign=bottom;" parent="ULbYfJg5A491xoH4sD0i-11" connectable="0" vertex="1">
          <mxGeometry x="1" relative="1" as="geometry" />
        </mxCell>
        <mxCell id="ULbYfJg5A491xoH4sD0i-22" value="N" style="text;html=1;align=center;verticalAlign=middle;resizable=0;points=[];autosize=1;strokeColor=none;fillColor=none;" parent="1" vertex="1">
          <mxGeometry x="-305" y="428" width="30" height="30" as="geometry" />
        </mxCell>
        <mxCell id="ULbYfJg5A491xoH4sD0i-23" value="N" style="text;html=1;align=center;verticalAlign=middle;resizable=0;points=[];autosize=1;strokeColor=none;fillColor=none;" parent="1" vertex="1">
          <mxGeometry x="1210" y="190" width="30" height="30" as="geometry" />
        </mxCell>
        <mxCell id="ULbYfJg5A491xoH4sD0i-24" value="Results" style="shape=ext;margin=3;double=1;whiteSpace=wrap;html=1;align=center;" parent="1" vertex="1">
          <mxGeometry x="210" y="418" width="100" height="40" as="geometry" />
        </mxCell>
        <mxCell id="ULbYfJg5A491xoH4sD0i-25" value="" style="endArrow=none;html=1;rounded=0;exitX=1.005;exitY=0.08;exitDx=0;exitDy=0;exitPerimeter=0;entryX=0.034;entryY=0.536;entryDx=0;entryDy=0;entryPerimeter=0;" parent="1" source="ULbYfJg5A491xoH4sD0i-24" target="bziECuRTAR9rfFPs8nf1-183" edge="1">
          <mxGeometry relative="1" as="geometry">
            <mxPoint x="290" y="380" as="sourcePoint" />
            <mxPoint x="450" y="380" as="targetPoint" />
          </mxGeometry>
        </mxCell>
        <mxCell id="ULbYfJg5A491xoH4sD0i-26" value="" style="endArrow=none;html=1;rounded=0;exitX=0.928;exitY=0.411;exitDx=0;exitDy=0;exitPerimeter=0;entryX=-0.009;entryY=0.459;entryDx=0;entryDy=0;entryPerimeter=0;" parent="1" source="bziECuRTAR9rfFPs8nf1-189" target="ULbYfJg5A491xoH4sD0i-24" edge="1">
          <mxGeometry relative="1" as="geometry">
            <mxPoint x="20" y="440" as="sourcePoint" />
            <mxPoint x="180" y="440" as="targetPoint" />
          </mxGeometry>
        </mxCell>
        <mxCell id="Si3CQZquY_EqmRaZbEzh-1" value="Instructor_id" style="ellipse;whiteSpace=wrap;html=1;align=center;" parent="1" vertex="1">
          <mxGeometry x="-460" y="325" width="100" height="40" as="geometry" />
        </mxCell>
        <mxCell id="Si3CQZquY_EqmRaZbEzh-2" value="Schedule_table" style="whiteSpace=wrap;html=1;align=center;" parent="1" vertex="1">
          <mxGeometry x="-350" y="385" width="100" height="40" as="geometry" />
        </mxCell>
        <mxCell id="Si3CQZquY_EqmRaZbEzh-3" value="N" style="text;html=1;align=center;verticalAlign=middle;resizable=0;points=[];autosize=1;strokeColor=none;fillColor=none;" parent="1" vertex="1">
          <mxGeometry x="175" y="408" width="30" height="30" as="geometry" />
        </mxCell>
        <mxCell id="Si3CQZquY_EqmRaZbEzh-4" value="1" style="text;html=1;align=center;verticalAlign=middle;resizable=0;points=[];autosize=1;strokeColor=none;fillColor=none;" parent="1" vertex="1">
          <mxGeometry x="-240" y="385" width="30" height="30" as="geometry" />
        </mxCell>
        <mxCell id="Si3CQZquY_EqmRaZbEzh-5" value="DOB" style="ellipse;whiteSpace=wrap;html=1;align=center;" parent="1" vertex="1">
          <mxGeometry x="670" y="120" width="100" height="40" as="geometry" />
        </mxCell>
        <mxCell id="Si3CQZquY_EqmRaZbEzh-6" value="" style="endArrow=none;html=1;rounded=0;exitX=1;exitY=0.5;exitDx=0;exitDy=0;entryX=0;entryY=0.5;entryDx=0;entryDy=0;" parent="1" source="bziECuRTAR9rfFPs8nf1-12" target="Si3CQZquY_EqmRaZbEzh-5" edge="1">
          <mxGeometry relative="1" as="geometry">
            <mxPoint x="640" y="140" as="sourcePoint" />
            <mxPoint x="800" y="140" as="targetPoint" />
          </mxGeometry>
        </mxCell>
        <mxCell id="147saZOP2wvVsyCB1ZHs-10" value="User_response&lt;div&gt;details&lt;/div&gt;" style="whiteSpace=wrap;html=1;align=center;" parent="1" vertex="1">
          <mxGeometry x="725" y="590" width="100" height="40" as="geometry" />
        </mxCell>
        <mxCell id="147saZOP2wvVsyCB1ZHs-11" value="response_id" style="ellipse;whiteSpace=wrap;html=1;align=center;fontStyle=4;" parent="1" vertex="1">
          <mxGeometry x="600" y="530" width="100" height="40" as="geometry" />
        </mxCell>
        <mxCell id="147saZOP2wvVsyCB1ZHs-12" value="quiz_id" style="ellipse;whiteSpace=wrap;html=1;align=center;" parent="1" vertex="1">
          <mxGeometry x="615" y="692" width="100" height="40" as="geometry" />
        </mxCell>
        <mxCell id="147saZOP2wvVsyCB1ZHs-13" value="User_id" style="ellipse;whiteSpace=wrap;html=1;align=center;" parent="1" vertex="1">
          <mxGeometry x="785" y="692" width="100" height="40" as="geometry" />
        </mxCell>
        <mxCell id="147saZOP2wvVsyCB1ZHs-14" value="" style="endArrow=none;html=1;rounded=0;exitX=1;exitY=0.5;exitDx=0;exitDy=0;entryX=0;entryY=0.5;entryDx=0;entryDy=0;" parent="1" source="147saZOP2wvVsyCB1ZHs-11" target="147saZOP2wvVsyCB1ZHs-10" edge="1">
          <mxGeometry relative="1" as="geometry">
            <mxPoint x="1045" y="662" as="sourcePoint" />
            <mxPoint x="1205" y="662" as="targetPoint" />
          </mxGeometry>
        </mxCell>
        <mxCell id="147saZOP2wvVsyCB1ZHs-15" value="" style="endArrow=none;html=1;rounded=0;exitX=0.5;exitY=0;exitDx=0;exitDy=0;entryX=0.25;entryY=1;entryDx=0;entryDy=0;" parent="1" source="147saZOP2wvVsyCB1ZHs-12" target="147saZOP2wvVsyCB1ZHs-10" edge="1">
          <mxGeometry relative="1" as="geometry">
            <mxPoint x="945" y="662" as="sourcePoint" />
            <mxPoint x="1105" y="662" as="targetPoint" />
          </mxGeometry>
        </mxCell>
        <mxCell id="147saZOP2wvVsyCB1ZHs-16" value="" style="endArrow=none;html=1;rounded=0;exitX=0.5;exitY=1;exitDx=0;exitDy=0;entryX=0.5;entryY=0;entryDx=0;entryDy=0;" parent="1" source="147saZOP2wvVsyCB1ZHs-10" target="147saZOP2wvVsyCB1ZHs-13" edge="1">
          <mxGeometry relative="1" as="geometry">
            <mxPoint x="765" y="662" as="sourcePoint" />
            <mxPoint x="925" y="662" as="targetPoint" />
          </mxGeometry>
        </mxCell>
        <mxCell id="147saZOP2wvVsyCB1ZHs-17" value="Has" style="shape=rhombus;perimeter=rhombusPerimeter;whiteSpace=wrap;html=1;align=center;" parent="1" vertex="1">
          <mxGeometry x="700" y="370" width="120" height="60" as="geometry" />
        </mxCell>
        <mxCell id="147saZOP2wvVsyCB1ZHs-20" value="" style="endArrow=none;html=1;rounded=0;entryX=0.5;entryY=0;entryDx=0;entryDy=0;" parent="1" target="147saZOP2wvVsyCB1ZHs-17" edge="1">
          <mxGeometry relative="1" as="geometry">
            <mxPoint x="620" y="160" as="sourcePoint" />
            <mxPoint x="880" y="330" as="targetPoint" />
            <Array as="points">
              <mxPoint x="760" y="190" />
            </Array>
          </mxGeometry>
        </mxCell>
        <mxCell id="147saZOP2wvVsyCB1ZHs-21" value="" style="shape=link;html=1;rounded=0;exitX=0.5;exitY=1;exitDx=0;exitDy=0;entryX=0.5;entryY=0;entryDx=0;entryDy=0;" parent="1" source="147saZOP2wvVsyCB1ZHs-17" target="147saZOP2wvVsyCB1ZHs-10" edge="1">
          <mxGeometry relative="1" as="geometry">
            <mxPoint x="720" y="490" as="sourcePoint" />
            <mxPoint x="880" y="490" as="targetPoint" />
          </mxGeometry>
        </mxCell>
        <mxCell id="147saZOP2wvVsyCB1ZHs-23" value="1" style="text;html=1;align=center;verticalAlign=middle;resizable=0;points=[];autosize=1;strokeColor=none;fillColor=none;" parent="1" vertex="1">
          <mxGeometry x="625" y="158" width="30" height="30" as="geometry" />
        </mxCell>
        <mxCell id="147saZOP2wvVsyCB1ZHs-24" value="N" style="text;html=1;align=center;verticalAlign=middle;resizable=0;points=[];autosize=1;strokeColor=none;fillColor=none;" parent="1" vertex="1">
          <mxGeometry x="775" y="568" width="30" height="30" as="geometry" />
        </mxCell>
        <mxCell id="147saZOP2wvVsyCB1ZHs-26" value="&lt;u&gt;Question_id&lt;/u&gt;" style="ellipse;whiteSpace=wrap;html=1;align=center;" parent="1" vertex="1">
          <mxGeometry x="870" y="540" width="100" height="40" as="geometry" />
        </mxCell>
        <mxCell id="147saZOP2wvVsyCB1ZHs-27" value="Answer" style="ellipse;whiteSpace=wrap;html=1;align=center;" parent="1" vertex="1">
          <mxGeometry x="930" y="640" width="100" height="40" as="geometry" />
        </mxCell>
        <mxCell id="147saZOP2wvVsyCB1ZHs-28" value="" style="endArrow=none;html=1;rounded=0;exitX=1;exitY=0.5;exitDx=0;exitDy=0;entryX=0.5;entryY=1;entryDx=0;entryDy=0;" parent="1" source="147saZOP2wvVsyCB1ZHs-10" target="147saZOP2wvVsyCB1ZHs-26" edge="1">
          <mxGeometry relative="1" as="geometry">
            <mxPoint x="760" y="530" as="sourcePoint" />
            <mxPoint x="920" y="530" as="targetPoint" />
          </mxGeometry>
        </mxCell>
        <mxCell id="147saZOP2wvVsyCB1ZHs-29" value="" style="endArrow=none;html=1;rounded=0;exitX=1;exitY=0.5;exitDx=0;exitDy=0;entryX=0;entryY=0.5;entryDx=0;entryDy=0;" parent="1" source="147saZOP2wvVsyCB1ZHs-10" target="147saZOP2wvVsyCB1ZHs-27" edge="1">
          <mxGeometry relative="1" as="geometry">
            <mxPoint x="830" y="610" as="sourcePoint" />
            <mxPoint x="920" y="530" as="targetPoint" />
          </mxGeometry>
        </mxCell>
        <mxCell id="147saZOP2wvVsyCB1ZHs-32" value="" style="endArrow=none;html=1;rounded=0;exitX=0.5;exitY=1;exitDx=0;exitDy=0;entryX=0;entryY=0.5;entryDx=0;entryDy=0;" parent="1" source="Si3CQZquY_EqmRaZbEzh-2" target="147saZOP2wvVsyCB1ZHs-33" edge="1">
          <mxGeometry relative="1" as="geometry">
            <mxPoint x="170" y="560" as="sourcePoint" />
            <mxPoint x="120" y="640" as="targetPoint" />
            <Array as="points">
              <mxPoint x="-330" y="640" />
            </Array>
          </mxGeometry>
        </mxCell>
        <mxCell id="147saZOP2wvVsyCB1ZHs-33" value="Has" style="shape=rhombus;perimeter=rhombusPerimeter;whiteSpace=wrap;html=1;align=center;" parent="1" vertex="1">
          <mxGeometry x="115" y="610" width="120" height="60" as="geometry" />
        </mxCell>
        <mxCell id="147saZOP2wvVsyCB1ZHs-38" value="N" style="text;html=1;align=center;verticalAlign=middle;resizable=0;points=[];autosize=1;strokeColor=none;fillColor=none;" parent="1" vertex="1">
          <mxGeometry x="675" y="588" width="30" height="30" as="geometry" />
        </mxCell>
        <mxCell id="147saZOP2wvVsyCB1ZHs-39" value="" style="shape=link;html=1;rounded=0;exitX=1;exitY=0.5;exitDx=0;exitDy=0;entryX=0;entryY=0.75;entryDx=0;entryDy=0;" parent="1" source="147saZOP2wvVsyCB1ZHs-33" target="147saZOP2wvVsyCB1ZHs-10" edge="1">
          <mxGeometry relative="1" as="geometry">
            <mxPoint x="340" y="830" as="sourcePoint" />
            <mxPoint x="500" y="830" as="targetPoint" />
          </mxGeometry>
        </mxCell>
        <mxCell id="147saZOP2wvVsyCB1ZHs-40" value="" style="resizable=0;html=1;whiteSpace=wrap;align=right;verticalAlign=bottom;" parent="147saZOP2wvVsyCB1ZHs-39" connectable="0" vertex="1">
          <mxGeometry x="1" relative="1" as="geometry" />
        </mxCell>
        <mxCell id="147saZOP2wvVsyCB1ZHs-42" value="" style="endArrow=none;html=1;rounded=0;entryX=0.25;entryY=1;entryDx=0;entryDy=0;" parent="1" target="bziECuRTAR9rfFPs8nf1-33" edge="1">
          <mxGeometry relative="1" as="geometry">
            <mxPoint x="240" y="840" as="sourcePoint" />
            <mxPoint x="420" y="490" as="targetPoint" />
            <Array as="points">
              <mxPoint x="1240" y="840" />
            </Array>
          </mxGeometry>
        </mxCell>
        <mxCell id="147saZOP2wvVsyCB1ZHs-43" value="Belongs" style="shape=rhombus;perimeter=rhombusPerimeter;whiteSpace=wrap;html=1;align=center;" parent="1" vertex="1">
          <mxGeometry x="125" y="810" width="120" height="60" as="geometry" />
        </mxCell>
        <mxCell id="147saZOP2wvVsyCB1ZHs-44" value="" style="shape=link;html=1;rounded=0;entryX=0;entryY=0.5;entryDx=0;entryDy=0;" parent="1" target="147saZOP2wvVsyCB1ZHs-43" edge="1">
          <mxGeometry relative="1" as="geometry">
            <mxPoint x="-300" y="430" as="sourcePoint" />
            <mxPoint x="320" y="580" as="targetPoint" />
            <Array as="points">
              <mxPoint x="-420" y="800" />
            </Array>
          </mxGeometry>
        </mxCell>
        <mxCell id="147saZOP2wvVsyCB1ZHs-45" value="" style="resizable=0;html=1;whiteSpace=wrap;align=right;verticalAlign=bottom;" parent="147saZOP2wvVsyCB1ZHs-44" connectable="0" vertex="1">
          <mxGeometry x="1" relative="1" as="geometry" />
        </mxCell>
        <mxCell id="147saZOP2wvVsyCB1ZHs-46" value="N" style="text;html=1;align=center;verticalAlign=middle;resizable=0;points=[];autosize=1;strokeColor=none;fillColor=none;" parent="1" vertex="1">
          <mxGeometry x="-345" y="448" width="30" height="30" as="geometry" />
        </mxCell>
      </root>
    </mxGraphModel>
  </diagram>
  <diagram id="JWjHb9IyXpGMuHGAzxok" name="Page-2">
    <mxGraphModel dx="986" dy="459" grid="1" gridSize="10" guides="1" tooltips="1" connect="1" arrows="1" fold="1" page="1" pageScale="1" pageWidth="850" pageHeight="1100" math="0" shadow="0">
      <root>
        <mxCell id="0" />
        <mxCell id="1" parent="0" />
      </root>
    </mxGraphModel>
  </diagram>
</mxfile>
